<?xml version="1.0" standalone="no"?><svg xmlns="http://www.w3.org/2000/svg" viewBox="0 0 1440 320"><path fill="#0099ff" fill-opacity="1" d="M0,256L34.3,245.3C68.6,235,137,213,206,208C274.3,203,343,213,411,218.7C480,224,549,224,617,197.3C685.7,171,754,117,823,112C891.4,107,960,149,1029,160C1097.1,171,1166,149,1234,133.3C1302.9,117,1371,107,1406,101.3L1440,96L1440,320L1405.7,320C1371.4,320,1303,320,1234,320C1165.7,320,1097,320,1029,320C960,320,891,320,823,320C754.3,320,686,320,617,320C548.6,320,480,320,411,320C342.9,320,274,320,206,320C137.1,320,69,320,34,320L0,320Z"></path></svg>